# xmcd
#
# Track frame offsets:
#	183
#	21423
#	37463
#	58265
#	77498
#	90978
#	106075
#	118610
#	130525
#	145015
#	160428
#	174078
#	186530
#	200965
#	220243
#	236710
# Disc length: 3369 seconds
# Revision: 20
# Processed by: cddbd v1.5.1PL0 Copyright (c) Steve Scherf et al.
#
# Submitted via: libkcddb 0.10
#
DISCID=e50d2710
DTITLE=David Bowie - The Rise And Fall Of Ziggy Stardust And The Spiders From Mars
DYEAR=1972
DGENRE=Rock
TTITLE0=Five Years
TTITLE1=Soul Love
TTITLE2=Moonage Daydream
TTITLE3=Starman
TTITLE4=It Ain’t Easy
TTITLE5=Lady Stardust
TTITLE6=Star
TTITLE7=Hang On Yourself
TTITLE8=Ziggy Stardust
TTITLE9=Suffragette City
TTITLE10=Rock ’N’ Roll Suicide
TTITLE11=John, I’m Only Dancing (Single B-side)
TTITLE12=Velvet Goldmine (Single B-side)
TTITLE13=Sweet Head (Previously unreleased track)
TTITLE14=Ziggy Stardust (Previously unreleased original demo)
TTITLE15=Lady Stardust (Previously unreleased original demo)
EXTD=Rykodisc
EXTD=Year: 1990
EXTD=Catalog Number: RCD 10134
EXTD=YEAR: 1972
EXTT0=
EXTT1=
EXTT2=
EXTT3=
EXTT4=
EXTT5=
EXTT6=
EXTT7=
EXTT8=
EXTT9=
EXTT10=
EXTT11=(single b-side)
EXTT12=(single b-side)
EXTT13=(previously unreleased track)
EXTT14=(previously unreleased original demo)
EXTT15=(previously unreleased original demo)
PLAYORDER=
